<svg width="512" height="512" viewBox="0 0 512 512" fill="none" xmlns="http://www.w3.org/2000/svg">
  <defs>
    <linearGradient id="aa_grad" x1="96" y1="80" x2="416" y2="432" gradientUnits="userSpaceOnUse">
      <stop offset="0" stop-color="#E8DCC8"/>
      <stop offset="1" stop-color="#B8956A"/>
    </linearGradient>
    <filter id="aa_soft" x="-20%" y="-20%" width="140%" height="140%" color-interpolation-filters="sRGB">
      <feGaussianBlur stdDeviation="3" result="blur"/>
      <feColorMatrix in="blur" type="matrix"
        values="0 0 0 0 0.72
                0 0 0 0 0.59
                0 0 0 0 0.42
                0 0 0 0.25 0" result="soft"/>
      <feMerge>
        <feMergeNode in="soft"/>
        <feMergeNode in="SourceGraphic"/>
      </feMerge>
    </filter>
  </defs>

  <path d="M256 86L408 426H358L316 324H196L154 426H104L256 86Z" fill="#2C2420"/>
  <path d="M256 168L222 254H290L256 168Z" fill="url(#aa_grad)"/>

  <g filter="url(#aa_soft)">
    <circle cx="206" cy="260" r="7" fill="#B8956A"/>
    <circle cx="306" cy="260" r="7" fill="#B8956A"/>
    <circle cx="176" cy="324" r="6" fill="#C4A574"/>
    <circle cx="336" cy="324" r="6" fill="#C4A574"/>
    <circle cx="256" cy="206" r="6" fill="#8B7355"/>

    <path d="M206 260H306" stroke="#B8956A" stroke-width="3" stroke-linecap="round" opacity="0.9"/>
    <path d="M206 260L176 324" stroke="#C4A574" stroke-width="3" stroke-linecap="round" opacity="0.55"/>
    <path d="M306 260L336 324" stroke="#C4A574" stroke-width="3" stroke-linecap="round" opacity="0.55"/>
    <path d="M256 206L206 260" stroke="#8B7355" stroke-width="3" stroke-linecap="round" opacity="0.5"/>
    <path d="M256 206L306 260" stroke="#8B7355" stroke-width="3" stroke-linecap="round" opacity="0.5"/>
  </g>
</svg>
